<?xml version="1.0" standalone="no"?>
<!DOCTYPE svg PUBLIC "-//W3C//DTD SVG 20010904//EN"
 "http://www.w3.org/TR/2001/REC-SVG-20010904/DTD/svg10.dtd">
<svg version="1.0" xmlns="http://www.w3.org/2000/svg"
 width="202.000000pt" height="201.000000pt" viewBox="0 0 202.000000 201.000000"
 preserveAspectRatio="xMidYMid meet">

<g transform="translate(0.000000,201.000000) scale(0.100000,-0.100000)"
fill="#000000" stroke="none">
<path d="M806 1995 c-97 -20 -159 -42 -251 -88 -109 -54 -186 -111 -276 -203
-90 -93 -153 -188 -201 -304 -63 -149 -73 -205 -72 -390 1 -193 16 -264 88
-415 57 -121 93 -172 185 -269 95 -98 173 -154 294 -211 149 -71 220 -85 422
-85 201 0 273 15 424 86 113 53 203 118 297 216 81 83 131 156 185 272 64 138
79 215 79 411 0 188 -11 253 -69 392 -60 147 -202 323 -337 419 -82 58 -233
129 -330 155 -104 27 -338 35 -438 14z m436 -48 c169 -44 356 -157 467 -283
102 -116 182 -265 222 -414 32 -122 33 -337 1 -464 -72 -286 -266 -520 -537
-647 -134 -63 -235 -83 -405 -83 -123 1 -160 5 -241 26 -337 90 -597 353 -691
698 -32 120 -32 345 1 470 30 117 117 289 191 377 148 179 373 308 597 343
102 16 287 5 395 -23z"/>
<path d="M827 1915 c-348 -66 -624 -325 -718 -675 -33 -120 -33 -327 0 -450
96 -367 405 -635 787 -682 442 -54 875 248 986 688 31 121 30 332 -1 447 -42
159 -155 347 -269 448 -112 98 -246 171 -387 209 -105 28 -291 35 -398 15z
m100 -60 c-46 -42 -141 -84 -156 -69 -15 15 98 91 154 105 51 12 51 9 2 -36z
m194 14 c43 -21 99 -67 99 -80 0 -26 -130 34 -175 80 l-29 31 34 -6 c19 -4 51
-15 71 -25z m-352 -36 c-36 -39 -54 -50 -98 -61 -69 -16 -128 -50 -173 -100
-22 -25 -49 -43 -70 -47 -18 -4 -49 -13 -68 -21 -59 -23 103 123 193 175 66
37 223 100 251 101 5 0 -11 -21 -35 -47z m524 12 c100 -34 211 -101 291 -176
l71 -67 -68 18 c-58 14 -74 23 -111 63 -44 49 -104 81 -171 93 -31 6 -51 19
-85 57 -50 56 -54 55 73 12z m-279 -38 c4 -24 1 -67 -5 -97 -10 -45 -13 -50
-22 -34 -12 22 -16 140 -5 167 12 27 25 12 32 -36z m98 -25 l35 -17 -51 -30
-51 -30 0 62 c0 56 2 60 16 47 9 -8 32 -22 51 -32z m-170 -33 l3 -46 -35 23
c-19 13 -40 24 -47 24 -24 0 -13 15 30 41 23 14 43 20 44 15 1 -6 3 -32 5 -57z
m-275 -44 c-44 -40 -140 -85 -154 -72 -7 8 54 64 89 83 22 11 81 29 108 33 3
0 -16 -20 -43 -44z m723 10 c14 -7 41 -30 60 -50 l35 -36 -30 6 c-62 14 -165
81 -165 106 0 9 66 -8 100 -26z m-535 5 c51 -25 107 -80 82 -80 -27 0 -109 45
-136 74 -22 23 -23 26 -6 26 10 0 37 -9 60 -20z m334 -6 c-24 -27 -112 -74
-138 -74 -23 0 36 57 83 80 23 11 50 20 60 20 18 0 18 -2 -5 -26z m87 -65 c7
-61 -12 -152 -27 -128 -17 28 -22 102 -9 157 14 65 26 55 36 -29z m-519 -6 c3
-27 0 -68 -7 -93 l-13 -45 -14 45 c-13 42 -11 116 4 156 5 15 7 15 15 0 5 -9
11 -37 15 -63z m111 -40 c-16 -7 -41 -21 -56 -32 l-27 -19 0 62 0 63 56 -31
57 -31 -30 -12z m530 17 c13 0 -18 -23 -83 -62 -6 -4 -10 17 -10 56 l0 63 39
-29 c21 -15 46 -28 54 -28z m-715 -18 c4 -52 4 -52 -17 -37 -12 9 -37 23 -56
31 l-34 16 29 13 c17 7 39 20 50 28 23 18 22 19 28 -51z m517 14 l0 -55 -53
27 -53 27 50 27 c28 15 52 27 54 28 1 0 2 -24 2 -54z m254 -47 c-29 -32 -116
-79 -144 -78 -28 0 68 75 117 92 26 9 50 16 52 16 3 1 -8 -13 -25 -30z m-1039
-9 c-31 -32 -90 -64 -140 -76 l-30 -7 29 32 c33 34 119 81 150 81 18 0 17 -3
-9 -30z m179 10 c23 -12 56 -34 71 -50 25 -27 26 -30 9 -30 -32 1 -97 35 -128
69 -36 38 -19 42 48 11z m335 -6 c-24 -27 -112 -74 -138 -74 -23 0 36 57 83
80 23 11 50 20 60 20 18 0 18 -2 -5 -26z m186 6 c51 -25 107 -80 82 -80 -29 0
-102 39 -132 70 -25 26 -26 30 -10 30 10 0 37 -9 60 -20z m511 5 c42 -17 114
-72 114 -87 0 -25 -101 18 -157 67 -35 31 -36 34 -15 35 12 0 39 -7 58 -15z
m-1127 -110 c1 -22 -4 -58 -11 -80 l-11 -40 -13 40 c-16 52 -17 95 -2 153 l12
47 12 -40 c7 -22 13 -58 13 -80z m515 0 c0 -38 -5 -79 -11 -90 -11 -19 -12
-18 -20 10 -4 17 -8 53 -8 80 0 28 4 63 8 80 8 28 9 29 20 10 6 -11 11 -51 11
-90z m522 29 c4 -27 1 -69 -6 -94 -12 -43 -13 -44 -22 -20 -12 30 -14 125 -4
159 11 33 25 14 32 -45z m-591 -28 l0 -65 -30 20 c-16 11 -43 25 -58 31 l-29
10 59 34 c32 18 58 33 58 33 0 1 0 -28 0 -63z m185 12 c19 -10 27 -18 19 -18
-8 0 -35 -13 -60 -28 l-44 -28 0 62 0 63 25 -17 c14 -9 41 -24 60 -34z m335
-13 l0 -64 -25 16 c-14 9 -40 24 -59 34 l-34 16 32 11 c18 6 44 20 58 32 14
11 26 20 27 20 0 0 1 -29 1 -65z m-1043 -16 l3 -45 -48 30 -48 30 35 18 c19
10 38 23 43 30 9 15 10 8 15 -63z m194 8 c-11 -4 -35 -17 -53 -28 l-33 -21 0
56 0 55 53 -27 c44 -23 49 -28 33 -35z m1035 14 c23 -8 22 -9 -18 -29 -23 -12
-44 -26 -48 -32 -14 -23 -20 -7 -17 50 l4 60 28 -20 c15 -11 38 -24 51 -29z
m-1310 -55 c45 -21 96 -69 80 -74 -19 -6 -114 44 -145 77 l-29 31 30 -9 c17
-5 46 -16 64 -25z m330 0 c-36 -37 -121 -79 -149 -74 -36 7 123 104 177 108 3
0 -10 -15 -28 -34z m523 3 c-29 -32 -116 -79 -144 -78 -28 0 68 75 117 92 26
9 50 16 52 16 3 1 -8 -13 -25 -30z m191 -7 c51 -26 97 -72 72 -72 -30 0 -103
40 -137 75 l-34 35 30 -9 c16 -5 47 -17 69 -29z m-527 4 c26 -13 58 -36 72
-51 l25 -28 -30 7 c-38 9 -104 48 -129 75 -17 19 -17 21 -2 21 9 0 38 -11 64
-24z m856 3 c-25 -27 -91 -66 -129 -75 l-30 -7 20 23 c26 29 114 80 139 80 19
0 19 0 0 -21z m82 -127 c-7 -87 -20 -106 -36 -57 -13 39 -10 161 5 185 16 26
37 -60 31 -128z m-1561 23 c0 -103 -17 -131 -35 -56 -9 38 -9 63 0 106 17 83
35 57 35 -50z m522 22 c3 -29 0 -72 -8 -97 l-12 -45 -13 40 c-16 51 -17 99 -3
149 9 34 13 37 21 22 5 -9 12 -40 15 -69z m520 4 c5 -44 -12 -129 -24 -117
-16 16 -23 94 -12 144 13 64 26 55 36 -27z m-592 -25 c0 -57 -2 -63 -15 -51
-9 8 -35 23 -59 33 -41 19 -42 20 -20 27 13 4 40 18 59 31 19 13 35 24 35 24
0 0 0 -29 0 -64z m176 18 l35 -19 -53 -27 -53 -27 0 61 c0 57 1 60 18 46 9 -9
33 -24 53 -34z m344 -18 c0 -42 -3 -61 -10 -56 -6 5 -29 19 -53 33 l-43 24 53
31 c29 17 53 31 53 31 0 1 0 -28 0 -63z m170 20 c28 -14 43 -26 34 -26 -8 0
-35 -13 -60 -28 l-44 -28 0 62 c0 40 4 59 10 54 6 -4 33 -20 60 -34z m-1049 7
l49 -28 -52 -27 -53 -27 0 55 c0 30 2 54 3 54 2 0 26 -12 53 -27z m1391 -28
c0 -30 -2 -55 -4 -55 -2 0 -21 11 -41 25 -20 14 -43 25 -52 25 -13 0 73 56 91
59 3 1 6 -24 6 -54z m-1281 -34 c-31 -34 -93 -72 -139 -86 -39 -12 -45 -12
-41 0 9 22 72 66 123 86 63 25 79 25 57 0z m159 -9 c43 -21 95 -61 95 -74 0
-31 -148 41 -171 84 -9 17 -7 18 18 12 15 -4 42 -13 58 -22z m324 -15 c-45
-42 -122 -77 -136 -63 -11 11 58 64 112 85 72 29 76 25 24 -22z m211 8 c14 -7
38 -27 54 -44 23 -24 26 -31 13 -31 -30 0 -103 40 -137 75 l-33 34 39 -10 c21
-6 50 -17 64 -24z m340 20 c0 -22 -120 -95 -157 -95 -25 0 30 55 81 80 38 18
76 26 76 15z m168 -19 c26 -13 60 -38 76 -55 l30 -31 -46 14 c-49 14 -90 40
-122 75 -17 19 -17 21 -2 21 9 0 38 -11 64 -24z m-1468 -15 c0 -10 6 -33 14
-52 12 -28 12 -37 -2 -68 -22 -50 -22 -175 0 -227 15 -38 15 -45 1 -90 -9 -27
-18 -56 -21 -64 -12 -38 -43 140 -45 255 -1 123 24 282 44 270 5 -4 9 -14 9
-24z m325 -54 c4 -28 2 -67 -6 -99 l-13 -53 -12 40 c-16 52 -17 95 -2 152 13
52 21 43 33 -40z m1376 -89 c12 -92 2 -230 -24 -318 l-13 -44 -20 60 c-18 55
-18 64 -5 95 19 45 19 183 0 228 -14 31 -13 40 6 93 l20 59 13 -43 c7 -24 17
-82 23 -130z m-861 109 c12 -62 -4 -175 -22 -144 -16 29 -21 110 -9 155 7 23
14 42 16 42 2 0 9 -24 15 -53z m524 -42 c1 -33 -3 -73 -7 -90 -7 -26 -10 -27
-18 -12 -12 21 -15 120 -4 166 6 30 9 32 18 16 6 -11 11 -46 11 -80z m-905 -6
c9 0 0 -7 -19 -16 -19 -8 -46 -23 -60 -33 l-25 -18 0 62 0 62 44 -28 c25 -15
52 -28 60 -29z m316 -2 l0 -64 -57 31 c-47 26 -53 32 -37 38 11 4 36 19 56 33
21 14 38 25 38 25 0 0 0 -29 0 -63z m187 11 l32 -11 -39 -18 c-22 -10 -49 -25
-60 -33 -19 -15 -20 -13 -20 48 l0 64 27 -19 c15 -11 42 -25 60 -31z m333 -11
l0 -64 -56 31 -56 30 36 17 c27 12 76 44 76 49 0 0 0 -29 0 -63z m178 14 l39
-18 -29 -11 c-15 -6 -41 -20 -58 -31 l-30 -20 0 64 c0 62 1 64 20 49 11 -8 37
-23 58 -33z m-1223 -16 l0 -55 -49 27 -49 28 47 27 c25 15 47 27 49 27 1 1 2
-24 2 -54z m-85 -43 c34 -17 86 -58 98 -77 6 -11 0 -11 -30 -3 -44 11 -125 63
-142 90 -10 17 -9 18 16 12 16 -4 42 -14 58 -22z m346 -6 c-26 -27 -103 -71
-145 -80 -27 -7 -28 -6 -15 11 32 41 120 92 158 93 l24 0 -22 -24z m174 0 c28
-13 61 -35 74 -50 22 -23 23 -26 6 -26 -30 0 -99 37 -130 70 -35 37 -19 39 50
6z m339 3 c-32 -35 -73 -61 -122 -75 l-46 -14 30 31 c32 34 109 78 138 79 19
0 19 0 0 -21z m201 -14 c22 -12 49 -32 59 -44 17 -19 17 -21 2 -21 -27 0 -109
45 -136 75 l-25 28 30 -7 c17 -4 48 -18 70 -31z m335 25 c0 -20 -123 -90 -157
-90 -13 0 -10 7 12 30 44 46 145 88 145 60z m-971 -102 c1 -15 -4 -51 -10 -80
-10 -43 -13 -49 -20 -32 -17 48 -21 115 -8 166 l13 53 12 -40 c7 -22 13 -52
13 -67z m517 14 c7 -55 -12 -144 -27 -121 -17 28 -22 102 -9 158 11 47 14 53
21 34 5 -13 11 -44 15 -71z m-1038 -10 c2 -37 -1 -80 -8 -97 -11 -28 -12 -29
-22 -10 -13 23 -16 128 -5 169 13 47 31 15 35 -62z m1555 -5 c2 -66 -8 -117
-22 -117 -21 0 -29 139 -10 187 9 25 11 26 21 10 5 -10 11 -46 11 -80z m-1108
-11 c0 -57 -2 -63 -15 -51 -8 7 -32 21 -53 32 l-39 19 41 19 c23 10 46 24 52
32 6 7 12 13 13 13 0 0 1 -29 1 -64z m520 1 l0 -63 -33 23 c-19 12 -42 25 -53
28 -17 6 -12 12 33 40 29 18 53 33 53 34 0 1 0 -27 0 -62z m183 12 l32 -17
-27 -10 c-16 -6 -41 -20 -58 -31 l-30 -20 0 64 0 64 25 -17 c14 -9 40 -24 58
-33z m-1019 -16 c2 -1 -5 -6 -15 -9 -10 -4 -34 -18 -51 -31 l-33 -24 0 61 0
61 48 -27 c26 -15 49 -29 51 -31z m450 43 c6 -8 26 -20 42 -27 l31 -12 -38
-20 c-22 -11 -46 -25 -54 -33 -13 -11 -15 -5 -12 47 4 60 10 70 31 45z m899
-42 c0 -30 -3 -54 -6 -52 -4 2 -28 14 -53 27 l-46 24 51 27 c28 16 52 29 52
29 1 1 2 -24 2 -55z m-1096 -57 c44 -25 85 -64 77 -71 -2 -3 -28 4 -57 13 -51
18 -122 66 -129 88 -6 17 60 -1 109 -30z m308 8 c-38 -40 -104 -75 -140 -75
-23 0 -23 0 -5 20 24 27 78 60 124 76 55 20 58 17 21 -21z m191 4 c42 -21 99
-67 99 -79 0 -15 -89 17 -132 46 -21 15 -44 36 -49 46 -9 17 -7 18 18 12 15
-4 44 -15 64 -25z m-711 -10 c-40 -35 -106 -68 -134 -69 -18 0 -18 2 5 26 31
33 107 73 139 73 24 0 24 0 -10 -30z m1034 0 c-33 -36 -63 -52 -118 -68 l-39
-10 29 31 c29 30 116 78 143 78 10 0 4 -11 -15 -31z m191 7 c42 -20 121 -86
103 -86 -38 0 -161 68 -172 96 -8 20 12 17 69 -10z m-1140 -63 c8 -53 -12
-165 -27 -140 -17 31 -21 114 -8 168 14 58 21 52 35 -28z m518 -44 c0 -36 -5
-74 -11 -84 -9 -17 -12 -13 -22 25 -11 42 -8 118 7 157 11 29 26 -26 26 -98z
m521 6 c0 -38 -5 -79 -11 -89 -9 -17 -12 -13 -21 27 -5 25 -8 56 -6 69 14 99
15 103 27 83 6 -11 11 -51 11 -90z m-1112 6 l-4 -59 -51 27 -52 26 35 16 c26
13 75 44 75 49 0 0 -2 -27 -3 -59z m191 3 c19 -6 17 -9 -19 -26 -21 -11 -46
-26 -54 -33 -13 -12 -15 -6 -15 49 l0 62 33 -23 c19 -12 43 -25 55 -29z m493
-32 c-23 -13 -45 -27 -51 -32 -6 -5 -10 13 -10 54 l0 61 51 -30 51 -30 -41
-23z m359 25 l0 -62 -51 30 -50 30 50 31 c28 18 51 32 51 33 0 1 0 -27 0 -62z
m183 10 l30 -12 -57 -31 -56 -31 0 63 0 62 27 -19 c15 -11 40 -25 56 -32z
m-708 -12 l0 -55 -49 28 -50 27 34 17 c19 10 37 22 40 28 15 24 25 6 25 -45z
m-246 -29 c-12 -30 -131 -97 -171 -96 -30 1 53 67 111 89 62 24 67 25 60 7z
m138 -6 c58 -22 127 -74 115 -86 -14 -14 -90 21 -136 63 -25 23 -43 42 -39 43
4 0 31 -9 60 -20z m358 -15 c-33 -34 -78 -60 -131 -75 -67 -20 19 59 100 91
65 26 69 24 31 -16z m185 7 c42 -21 92 -60 99 -77 4 -12 -2 -12 -41 0 -51 16
-119 60 -134 87 -9 17 -7 18 18 12 15 -4 42 -14 58 -22z m-1040 -2 c51 -25
107 -80 82 -80 -27 0 -109 45 -136 74 -22 23 -23 26 -6 26 10 0 37 -9 60 -20z
m1379 -1 c-32 -35 -73 -61 -122 -75 l-46 -14 30 31 c32 34 109 78 138 79 19 0
19 0 0 -21z m-959 -106 c0 -96 -17 -129 -34 -67 -14 50 -14 84 0 141 10 39 13
43 23 27 6 -11 11 -56 11 -101z m-520 -3 c0 -84 -6 -112 -22 -96 -11 10 -16
130 -8 172 5 28 9 34 18 25 7 -8 12 -46 12 -101z m1040 15 c0 -72 -13 -127
-25 -105 -16 32 -21 94 -9 147 10 49 13 54 22 37 6 -10 11 -46 12 -79z m521
26 c8 -53 -13 -158 -28 -143 -16 16 -22 152 -8 187 14 36 26 22 36 -44z
m-1111 -35 l0 -64 -27 19 c-15 11 -42 26 -60 34 -18 8 -26 14 -18 15 10 0 105
54 105 60 0 0 0 -29 0 -64z m520 0 l0 -63 -30 22 c-16 12 -39 25 -49 29 -22 8
-23 7 35 45 24 17 44 31 44 31 0 0 0 -29 0 -64z m188 -11 c-8 -5 -31 -20 -50
-32 -18 -13 -35 -23 -36 -23 -1 0 -2 28 -2 63 l0 62 52 -30 c43 -25 49 -32 36
-40z m-1063 36 c49 -27 51 -29 29 -36 -13 -4 -36 -16 -51 -26 -14 -11 -28 -19
-31 -19 -2 0 -5 25 -5 55 0 30 1 55 2 55 2 0 27 -13 56 -29z m557 -27 c-1 0
-23 -12 -49 -27 l-48 -26 0 55 0 54 49 -27 c27 -16 49 -28 48 -29z m832 2 l-1
-54 -52 27 -51 26 50 27 c28 14 51 27 52 27 1 1 2 -23 2 -53z m-1117 -50 c19
-9 50 -33 69 -52 l34 -35 -30 7 c-59 14 -165 81 -165 104 0 10 44 -2 92 -24z
m327 -2 c-38 -40 -67 -57 -121 -72 -36 -10 -37 -9 -27 9 12 24 76 67 126 85
57 20 60 17 22 -22z m187 6 c56 -28 113 -74 103 -84 -9 -10 -112 33 -146 61
-72 58 -50 70 43 23z m-686 15 c0 -20 -122 -95 -156 -95 -44 0 93 98 139 100
9 0 17 -2 17 -5z m1040 -2 c0 -22 -91 -78 -160 -98 -25 -7 -25 -7 5 25 41 45
155 98 155 73z m208 -38 c52 -35 65 -55 37 -55 -26 0 -108 46 -135 75 l-25 28
35 -7 c19 -3 59 -22 88 -41z m-1184 -80 c0 -38 -5 -79 -11 -89 -10 -18 -12
-16 -22 20 -14 49 -14 89 0 138 10 36 12 38 22 20 7 -10 12 -50 11 -89z m521
37 c8 -49 -12 -153 -26 -131 -16 26 -21 115 -9 159 13 50 23 42 35 -28z m522
-9 c3 -27 0 -68 -7 -93 -12 -43 -13 -44 -22 -20 -12 32 -14 114 -4 159 7 28
10 31 18 18 5 -9 11 -38 15 -64z m-1115 -22 l-4 -59 -35 24 c-20 13 -40 24
-44 24 -5 0 -9 5 -9 10 0 6 5 10 11 10 5 0 27 11 47 25 20 14 37 25 37 25 0 0
-2 -27 -3 -59z m169 13 l37 -19 -52 -30 -52 -31 1 62 c0 55 2 61 15 49 8 -7
31 -21 51 -31z m354 -17 l0 -62 -51 30 -50 30 50 31 c28 18 51 32 51 33 0 1 0
-27 0 -62z m173 15 l42 -19 -40 -18 c-22 -10 -45 -24 -51 -32 -20 -23 -24 -14
-24 51 0 57 2 63 15 51 9 -8 34 -22 58 -33z m347 -15 l0 -62 -51 30 -50 30 50
31 c28 18 51 32 51 33 0 1 0 -27 0 -62z m179 14 l30 -14 -24 -9 c-14 -5 -38
-19 -55 -32 l-30 -23 0 63 0 63 25 -16 c14 -9 38 -23 54 -32z m-1298 -62 c22
-10 53 -32 69 -49 25 -26 26 -30 9 -30 -32 0 -117 46 -149 80 l-30 33 30 -7
c17 -4 48 -16 71 -27z m324 -11 c-57 -49 -150 -86 -150 -59 0 26 163 112 180
94 3 -3 -11 -18 -30 -35z m1061 24 c-19 -36 -162 -114 -179 -97 -13 13 78 83
133 103 47 16 57 15 46 -6z m-876 -12 c47 -23 107 -80 84 -80 -26 0 -114 47
-138 74 -22 23 -23 26 -6 26 10 0 37 -9 60 -20z m334 -6 c-24 -27 -112 -74
-138 -74 -26 0 31 51 84 76 67 32 85 31 54 -2z m186 6 c44 -21 113 -76 105
-84 -9 -9 -106 29 -138 54 -61 49 -42 66 33 30z m-616 -100 c1 -19 -4 -53 -11
-75 l-11 -40 -14 45 c-13 42 -11 103 4 155 5 17 8 15 19 -15 7 -19 13 -51 13
-70z m516 12 c0 -37 -4 -80 -9 -97 -7 -27 -9 -28 -16 -10 -10 24 -12 141 -4
173 12 43 29 4 29 -66z m-590 -12 c0 -33 -2 -59 -5 -57 -3 1 -24 13 -47 27
-43 25 -54 40 -30 40 9 0 82 44 82 50 0 0 0 -27 0 -60z m183 -17 c-16 -7 -41
-21 -56 -32 l-27 -19 0 62 0 63 56 -31 57 -31 -30 -12z m338 13 l-1 -64 -25
18 c-14 9 -39 23 -57 31 l-31 13 56 32 c31 18 57 33 58 33 0 1 0 -28 0 -63z
m182 -9 c-11 -4 -33 -16 -48 -27 l-28 -20 -4 58 -3 57 51 -30 c44 -26 48 -31
32 -38z m-963 -3 c29 -5 50 -18 78 -50 40 -46 118 -89 180 -100 28 -5 52 -20
87 -55 27 -27 48 -49 46 -49 -1 0 -27 7 -57 16 -144 42 -290 128 -384 225 -43
44 -46 49 -20 36 17 -8 49 -19 70 -23z m1185 -20 c-56 -57 -186 -144 -265
-177 -48 -20 -159 -57 -171 -57 -2 0 19 22 45 49 35 36 59 52 87 57 64 11 126
45 175 95 35 36 55 48 90 54 24 4 51 11 59 16 28 16 24 9 -20 -37z m-1004 -15
c22 -10 53 -32 69 -49 28 -29 28 -30 7 -30 -33 0 -113 44 -147 80 l-30 33 30
-7 c17 -4 48 -16 71 -27z m328 0 c-41 -44 -154 -96 -154 -71 0 22 133 98 179
102 3 0 -8 -14 -25 -31z m218 -22 c48 -32 68 -57 45 -57 -26 0 -113 49 -141
78 l-29 31 39 -10 c21 -6 60 -25 86 -42z m317 36 c-32 -40 -125 -93 -164 -92
-33 0 60 77 114 93 61 19 66 19 50 -1z m-450 -111 c1 -13 -4 -44 -11 -70 -9
-37 -13 -42 -19 -26 -10 24 -11 141 -2 174 7 24 8 23 19 -15 7 -22 13 -50 13
-63z m-74 -6 c0 -64 0 -65 -20 -46 -11 10 -35 25 -54 33 l-33 14 54 31 c29 17
53 31 53 31 0 1 0 -28 0 -63z m200 2 c5 -5 3 -8 -6 -8 -9 0 -34 -13 -55 -28
l-39 -29 0 63 0 62 45 -26 c25 -14 49 -29 55 -34z m-279 -49 c22 -10 53 -32
69 -49 26 -27 27 -30 9 -30 -31 0 -117 47 -150 81 l-29 32 30 -7 c17 -4 48
-16 71 -27z m328 0 c-32 -34 -117 -79 -149 -78 -33 0 56 73 112 92 67 22 71
21 37 -14z"/>
</g>
</svg>
